<?xml version="1.0" encoding="UTF-8" standalone="no"?>
<!-- Created with Inkscape (http://www.inkscape.org/) -->

<svg
   width="129.08202mm"
   height="129.08202mm"
   viewBox="0 0 129.08202 129.08202"
   version="1.1"
   id="svg5"
   xmlns="http://www.w3.org/2000/svg"
   xmlns:svg="http://www.w3.org/2000/svg">
  <defs
     id="defs2" />
  <g
     id="layer1"
     transform="translate(-33.457497,-22.101313)">
    <path
       id="rect8930"
       style="fill:#cb6843;stroke-width:0.4049"
       d="M 33.457497,22.101313 H 162.53951 V 151.18333 H 33.457497 Z" />
    <g
       aria-label="chyfra"
       id="text40594"
       style="font-size:12.0395px;line-height:1.25;fill:#ffffff;stroke-width:0.300988" />
    <g
       aria-label="شفرة"
       id="text3536"
       style="font-size:28.6065px;line-height:1.25;fill:#ffffff;stroke-width:0.715163">
      <path
         id="path3819"
         style="font-weight:bold;font-family:'Noto Kufi Arabic';-inkscape-font-specification:'Noto Kufi Arabic Bold';stroke-width:2.70298"
         d="m 423.62695,155.99023 c -1.72989,0 -3.17093,0.54186 -4.32422,1.62305 -1.22534,1.00911 -1.83984,2.66612 -1.83984,4.97266 0,2.23446 0.6145,3.89342 1.83984,4.97461 1.15329,1.08119 2.59433,1.62109 4.32422,1.62109 1.87407,0 3.35045,-0.61254 4.43164,-1.83789 1.15326,-1.22535 1.73047,-2.81167 1.73047,-4.75781 0,-2.0903 -0.57721,-3.71197 -1.73047,-4.86524 -1.08119,-1.15327 -2.55757,-1.73047 -4.43164,-1.73047 z m -228.24023,1.73047 c -2.23446,0 -3.99945,0.68518 -5.29688,2.05469 -1.29742,1.36951 -1.94531,3.27977 -1.94531,5.73047 0,2.37862 0.64789,4.28888 1.94531,5.73047 1.29743,1.36951 3.06242,2.05469 5.29688,2.05469 2.16238,0 3.89398,-0.68518 5.1914,-2.05469 1.29743,-1.36951 1.94532,-3.27977 1.94532,-5.73047 0,-2.4507 -0.61255,-4.36096 -1.83789,-5.73047 -1.29743,-1.36951 -3.06437,-2.05469 -5.29883,-2.05469 z m 18.38086,0 c -2.23446,0 -3.99945,0.68518 -5.29688,2.05469 -1.29743,1.36951 -1.94726,3.27977 -1.94726,5.73047 0,2.37862 0.64983,4.28888 1.94726,5.73047 1.29743,1.36951 3.06242,2.05469 5.29688,2.05469 2.16238,0 3.89202,-0.68518 5.18945,-2.05469 1.29743,-1.44159 1.94727,-3.35185 1.94727,-5.73047 0,-2.4507 -0.64984,-4.36096 -1.94727,-5.73047 -1.22535,-1.36951 -2.95499,-2.05469 -5.18945,-2.05469 z m 110.71484,2.81055 c -2.30652,0 -4.07348,0.68518 -5.29883,2.05469 -1.29743,1.36951 -1.94531,3.27977 -1.94531,5.73047 0,2.37862 0.64788,4.28888 1.94531,5.73047 1.29741,1.3695 3.06438,2.05468 5.29883,2.05468 2.1624,0 3.89202,-0.68518 5.18946,-2.05468 1.29741,-1.44159 1.94531,-3.35185 1.94531,-5.73047 0,-2.4507 -0.6479,-4.36096 -1.94531,-5.73047 -1.22535,-1.36951 -2.95498,-2.05469 -5.18946,-2.05469 z m 89.95313,10.48828 c -2.23446,0 -3.99944,0.68518 -5.29688,2.05469 -1.29741,1.36951 -1.94531,3.27977 -1.94531,5.73047 0,2.37862 0.6479,4.28888 1.94531,5.73047 1.29744,1.3695 3.06242,2.05468 5.29688,2.05468 2.16239,0 3.89399,-0.68518 5.1914,-2.05468 1.29744,-1.44159 1.94532,-3.35185 1.94532,-5.73047 0,-2.4507 -0.61255,-4.36096 -1.83789,-5.73047 -1.29744,-1.36951 -3.06438,-2.05469 -5.29883,-2.05469 z m 18.38086,0 c -2.30655,0 -4.10882,0.68518 -5.40625,2.05469 -1.22535,1.36951 -1.83789,3.27977 -1.83789,5.73047 0,2.37862 0.64983,4.28888 1.94726,5.73047 1.29741,1.3695 3.06239,2.05468 5.29688,2.05468 2.16236,0 3.89201,-0.68518 5.18945,-2.05468 1.29744,-1.44159 1.94726,-3.35185 1.94726,-5.73047 10e-6,-2.4507 -0.64982,-4.36096 -1.94726,-5.73047 -1.29744,-1.36951 -3.02709,-2.05469 -5.18945,-2.05469 z m -225.85938,14.38086 c -5.33387,0 -10.05554,1.36841 -14.16406,4.10742 -4.10853,2.66694 -7.31651,6.37948 -9.62305,11.13672 -1.15327,2.37862 -2.01711,4.86608 -2.59375,7.46094 -0.57663,2.59486 -0.86523,5.29633 -0.86523,8.10742 0,8.21705 2.26954,14.41705 6.81054,18.59766 4.61308,4.1806 11.31765,6.26953 20.11133,6.26953 9.00992,0 15.78517,-2.01824 20.32617,-6.05469 4.61308,-4.03644 6.91993,-10.30713 6.91993,-18.8125 0,-3.74813 -0.5772,-7.3154 -1.73047,-10.70312 -1.15327,-3.45981 -2.73959,-6.59516 -4.75782,-9.40625 -2.01822,-2.8111 -4.3604,-5.0826 -7.02734,-6.8125 -2.01822,-1.29743 -4.14445,-2.26926 -6.3789,-2.91797 -2.23447,-0.64872 -4.57665,-0.97266 -7.02735,-0.97266 z m 56.00586,1.08008 v 54.49219 c 0,3.31565 -0.90115,6.05441 -2.70312,8.21679 -1.72992,2.23446 -4.03675,3.35157 -6.91993,3.35157 -2.01821,0 -3.78516,-0.21597 -5.29882,-0.64844 -4.01687,-1.87957 -6.51711,-3.25791 -10.83013,-4.10742 -2.33286,-0.46657 -4.96571,-0.69922 -7.89844,-0.69922 -3.93253,0 -7.36415,0.53316 -10.29688,1.59961 -2.86607,1.06644 -5.09954,2.89858 -6.69921,5.49804 -1.53302,2.53282 -2.29883,6.13312 -2.29883,10.79883 v 3.99805 l -8.19922,4 v 7.19922 h 8.19922 v 43.39062 h 14.89648 v -43.39062 h 12.89649 v -11.19922 h -12.89649 v -3.39844 c 0,-1.93293 0.4653,-3.53242 1.39844,-4.79883 0.9998,-1.2664 2.53337,-1.90039 4.59961,-1.90039 1.9512,0.0586 3.92705,0.16823 5.66797,1.01172 3.38773,2.30654 6.63301,3.89091 9.73242,4.75586 3.09941,0.86495 6.48607,1.29883 10.16211,1.29883 4.61309,0 8.57692,-1.00912 11.89258,-3.02734 3.38771,-1.94615 6.01851,-4.75755 7.89258,-8.4336 1.87406,-3.60397 2.8125,-7.85641 2.8125,-12.75781 V 240 h 14.05468 73.52149 41.30078 c 4.03646,0 7.53304,-0.68518 10.48828,-2.05469 3.02735,-1.36951 5.55014,-3.38775 7.56836,-6.05469 2.59485,2.66694 5.29631,4.68518 8.10742,6.05469 2.81109,1.36951 5.76777,2.05469 8.86719,2.05469 h 22.48828 v -53.51953 h -16.10937 v 40.54492 h -6.70313 c -2.81109,0 -5.08259,-0.46922 -6.8125,-1.40625 -1.72991,-0.93703 -3.4949,-2.59404 -5.29687,-4.97266 0.14412,-0.79287 0.21484,-1.58603 0.21484,-2.3789 0.0721,-0.79288 0.10937,-1.62138 0.10937,-2.48633 v -20.86719 h -16.10937 v 19.57032 c 0,4.39684 -0.83046,7.60287 -2.48828,9.62109 -1.65783,1.94614 -4.28862,2.91992 -7.89258,2.91992 h -9.18945 v -32.11133 h -16.10938 v 32.11133 h -12.43359 -13.51563 v -40.54492 h -19.24414 c -6.63131,0 -12.32674,1.08176 -17.08398,3.24414 -4.68516,2.0903 -8.28777,5.11766 -10.81055,9.08203 -2.4507,3.89229 -3.67773,8.54131 -3.67773,13.94727 0,1.80198 0.1806,3.53163 0.54101,5.18945 0.43246,1.65783 1.00966,3.24415 1.73047,4.75781 0.79287,1.51367 1.76664,2.95471 2.91992,4.32422 H 293.1269 279.07222 v -40.54492 z m -56.54687,11.89258 c 2.0903,0 3.96326,0.79316 5.62109,2.3789 1.7299,1.58575 3.10026,3.67663 4.10937,6.27149 1.00912,2.59485 1.51368,5.4789 1.51368,8.65039 0,4.10852 -0.90114,7.17123 -2.70313,9.18945 -1.80198,2.01822 -4.61338,3.02735 -8.43359,3.02734 -3.82021,0 -6.66695,-0.97378 -8.54102,-2.91992 -1.80198,-2.01822 -2.70312,-5.11627 -2.70312,-9.29687 0,-3.24357 0.50456,-6.16296 1.51367,-8.75781 1.00911,-2.59486 2.34217,-4.6504 4,-6.16407 1.7299,-1.58574 3.60482,-2.3789 5.62305,-2.3789 z m 127.79687,1.08203 h 2.81055 v 27.57031 h -3.02735 c -3.24356,0 -6.01767,-0.50456 -8.32421,-1.51367 -2.23446,-1.08119 -3.92875,-2.63022 -5.08204,-4.64844 -1.15326,-2.01822 -1.73046,-4.43304 -1.73046,-7.24414 0,-3.09941 0.5772,-5.69485 1.73046,-7.78516 1.22535,-2.0903 2.99033,-3.67662 5.29688,-4.75781 2.30654,-1.08119 5.08261,-1.62109 8.32617,-1.62109 z M 85.042969,247.58594 v 75.98437 h 15.095701 v -25.5957 c 0,-3.86587 0.36643,-7.13076 1.09961,-9.79688 0.73318,-2.66611 1.93328,-4.69989 3.59961,-6.09961 1.73298,-1.39971 4.06727,-2.0996 7,-2.0996 2.99938,0 5.19794,1.00041 6.59766,3 1.39971,1.93293 2.09961,4.8663 2.09961,8.79882 v 31.79297 h 15.09765 v -35.59375 c 0,-4.73236 -0.83367,-8.53041 -2.5,-11.39648 -1.59967,-2.93273 -3.86609,-5.09834 -6.79883,-6.49805 -2.93273,-1.39971 -6.3663,-2.09961 -10.29882,-2.09961 -2.19955,0 -4.29729,0.29856 -6.29688,0.89844 -1.93293,0.53322 -3.69915,1.3669 -5.29883,2.5 -1.59967,1.1331 -2.99946,2.66667 -4.19922,4.59961 h -0.800777 c 0.133297,-1.33306 0.267074,-3.09928 0.400391,-5.29883 0.199966,-2.2662 0.298826,-4.8661 0.298826,-7.79883 v -15.29687 z m -26.695313,20.39648 c -5.265585,0 -9.965171,0.99846 -14.097656,2.99805 -4.132485,1.93293 -7.397369,5.00008 -9.796875,9.19922 -2.399509,4.19914 -3.599609,9.66453 -3.599609,16.39648 0,6.39869 1.099279,11.69736 3.298828,15.89649 2.199549,4.13248 5.266693,7.19767 9.199218,9.19726 3.999179,1.93293 8.6309,2.90039 13.896485,2.90039 3.532608,0 6.599753,-0.36643 9.199219,-1.09961 2.599465,-0.73317 4.931804,-1.73358 6.998046,-3 v -12.29687 c -2.266202,1.26639 -4.666406,2.29976 -7.199218,3.09961 -2.532813,0.73318 -5.231578,1.09961 -8.097656,1.09961 -2.46616,0 -4.598808,-0.56807 -6.398438,-1.70117 -1.799632,-1.19975 -3.166469,-2.96596 -4.099609,-5.29883 C 46.717248,303.0402 46.25,300.07581 46.25,296.47656 c 0,-3.66592 0.467248,-6.7001 1.400391,-9.09961 0.93314,-2.46616 2.299977,-4.29829 4.099609,-5.49804 1.79963,-1.19976 3.99819,-1.80079 6.597656,-1.80079 1.99959,0 4.000411,0.30052 6,0.9004 2.066243,0.53322 4.098067,1.23312 6.097656,2.0996 l 4.5,-11.39648 c -2.199546,-1.1331 -4.73353,-2.03464 -7.599609,-2.70117 -2.799425,-0.66653 -5.798704,-0.99805 -8.998047,-0.99805 z m 217.656254,0 c -2.26621,0 -4.4008,0.4653 -6.40039,1.39844 -1.99958,0.86649 -3.79877,2.06659 -5.39844,3.59961 -1.59967,1.53302 -2.93159,3.26628 -3.99805,5.19922 h -0.70117 l -2.19922,-9.19922 h -11.49805 v 54.58984 h 15.09766 V 295.875 c 0,-2.66612 0.39937,-4.86468 1.19922,-6.59766 0.79982,-1.73298 1.86615,-3.13277 3.19922,-4.19922 1.33306,-1.06644 2.76582,-1.83225 4.29883,-2.29882 1.59967,-0.46657 3.16619,-0.70118 4.69921,-0.70118 1.39971,0 2.59983,0.0679 3.59961,0.20118 0.99981,0.13332 1.86644,0.26514 2.59961,0.39843 l 1.5,-14.0957 c -0.66653,-0.19997 -1.59908,-0.33374 -2.79883,-0.40039 -1.1331,-0.13332 -2.19943,-0.19922 -3.19921,-0.19922 z m 36.89062,0 c -4.39909,0 -8.46468,0.43234 -12.19726,1.29883 -3.66592,0.86649 -6.93081,2.03364 -9.79688,3.5 l 4.39844,10.29687 c 2.53281,-1.13309 5.09976,-2.0986 7.69922,-2.89843 2.59946,-0.79984 5.13149,-1.20117 7.59765,-1.20117 2.66613,0 4.73287,0.66694 6.19922,2 1.46638,1.2664 2.19922,3.53283 2.19922,6.79882 v 1.69922 l -9.09766,0.30078 c -8.19832,0.33327 -14.3636,1.93276 -18.49609,4.79883 -4.13248,2.86609 -6.19922,7.16433 -6.19922,12.89649 0,3.86585 0.73284,7.06679 2.19922,9.59961 1.46636,2.53281 3.46523,4.43084 5.99805,5.69726 2.53281,1.19975 5.40026,1.80078 8.59961,1.80078 3.06605,0 5.66594,-0.30053 7.79883,-0.90039 2.13288,-0.53324 3.99798,-1.43282 5.59765,-2.69922 1.66632,-1.26642 3.2658,-2.8659 4.79883,-4.79882 h 0.40039 l 2.89844,7.39843 h 10.49804 v -36.39258 c 0,-6.33203 -1.79916,-11.09753 -5.39843,-14.29687 -3.59925,-3.266 -8.83201,-4.89844 -15.69727,-4.89844 z m -170.16406,0.99805 21.69531,54.18945 -1.19922,3.09961 c -0.66653,1.73299 -1.46725,3.26657 -2.40039,4.59961 -0.93314,1.39974 -2.09833,2.49901 -3.49805,3.29883 -1.39971,0.86649 -3.13297,1.29883 -5.19921,1.29883 -1.13311,0 -2.23239,-0.0659 -3.29883,-0.19922 -0.9998,-0.13332 -1.86643,-0.2671 -2.59961,-0.40039 v 11.89843 c 0.86649,0.19997 1.93281,0.36671 3.19922,0.5 1.2664,0.20007 2.73211,0.29883 4.39843,0.29883 4.33245,0 7.96571,-0.73283 10.89844,-2.19922 2.93273,-1.46635 5.39885,-3.63198 7.39844,-6.49804 2.06624,-2.79945 3.83246,-6.23302 5.29883,-10.29883 l 22.39453,-59.58789 h -15.5957 L 174.125,300.17578 c -0.46657,1.46638 -0.96678,3.03095 -1.5,4.69727 -0.46657,1.66631 -0.80004,3.1999 -1,4.59961 h -0.40039 c -0.13331,-0.99979 -0.333,-2.03316 -0.59961,-3.09961 -0.19996,-1.06643 -0.46752,-2.0998 -0.80078,-3.09961 -0.26661,-1.06643 -0.56518,-2.09785 -0.89844,-3.09766 l -10.29883,-31.19531 z m 176.26367,29.29492 v 4.49805 c 0,3.46595 -1.09927,6.13372 -3.29883,8 -2.13289,1.86628 -4.76574,2.79883 -7.89843,2.79883 -2.19956,0 -3.96579,-0.53318 -5.29883,-1.59961 -1.26642,-1.13311 -1.90039,-2.86637 -1.90039,-5.19922 0,-2.53282 0.93254,-4.4987 2.79882,-5.89844 1.86628,-1.39971 5.16607,-2.16554 9.89844,-2.29883 z"
         transform="matrix(0.26458333,0,0,0.26458333,33.457497,22.101313)" />
    </g>
    <g
       aria-label="chyfra"
       id="text3540"
       style="font-size:26.4529px;line-height:1.25;fill:#ffffff;stroke-width:0.661327" />
  </g>
</svg>
