<?xml version="1.0" encoding="UTF-8" standalone="no"?>
<!-- Created with Inkscape (http://www.inkscape.org/) -->

<svg
   width="129.08202mm"
   height="129.08202mm"
   viewBox="0 0 129.08202 129.08202"
   version="1.1"
   id="svg5"
   inkscape:version="1.1.2 (0a00cf5339, 2022-02-04)"
   sodipodi:docname="chyfra-logo.svg"
   inkscape:export-xdpi="100.74834"
   inkscape:export-ydpi="100.74834"
   xmlns:inkscape="http://www.inkscape.org/namespaces/inkscape"
   xmlns:sodipodi="http://sodipodi.sourceforge.net/DTD/sodipodi-0.dtd"
   xmlns="http://www.w3.org/2000/svg"
   xmlns:svg="http://www.w3.org/2000/svg">
  <sodipodi:namedview
     id="namedview7"
     pagecolor="#ffffff"
     bordercolor="#666666"
     borderopacity="1.0"
     inkscape:pageshadow="2"
     inkscape:pageopacity="0.0"
     inkscape:pagecheckerboard="0"
     inkscape:document-units="mm"
     showgrid="false"
     inkscape:zoom="0.59992885"
     inkscape:cx="104.17902"
     inkscape:cy="430.051"
     inkscape:window-width="1920"
     inkscape:window-height="996"
     inkscape:window-x="0"
     inkscape:window-y="0"
     inkscape:window-maximized="1"
     inkscape:current-layer="layer1"
     fit-margin-top="0"
     fit-margin-left="0"
     fit-margin-right="0"
     fit-margin-bottom="0"
     showguides="false"
     inkscape:snap-global="true" />
  <defs
     id="defs2" />
  <g
     inkscape:label="Layer 1"
     inkscape:groupmode="layer"
     id="layer1"
     transform="translate(-33.457497,-22.101313)">
    <path
       id="rect8930"
       style="fill:#cb6843;stroke-width:0.4049"
       d="M 33.457497,22.101313 H 162.53951 V 151.18333 H 33.457497 Z" />
    <text
       xml:space="preserve"
       style="font-style:normal;font-weight:normal;font-size:16.5098px;line-height:1.25;font-family:sans-serif;fill:#000000;fill-opacity:1;stroke:none;stroke-width:0.412747"
       x="-162.81979"
       y="54.608288"
       id="text20229"><tspan
         sodipodi:role="line"
         id="tspan20227"
         style="font-style:normal;font-variant:normal;font-weight:bold;font-stretch:normal;font-family:'Noto Sans';-inkscape-font-specification:'Noto Sans Bold';stroke-width:0.412747"
         x="-162.81979"
         y="54.608288">Noto Sans (medium)</tspan></text>
    <text
       xml:space="preserve"
       style="font-style:normal;font-weight:normal;font-size:16.5098px;line-height:1.25;font-family:sans-serif;fill:#000000;fill-opacity:1;stroke:none;stroke-width:0.412747"
       x="-184.0712"
       y="90.410683"
       id="text26173"><tspan
         sodipodi:role="line"
         id="tspan26171"
         style="font-style:normal;font-variant:normal;font-weight:bold;font-stretch:normal;font-family:'Noto Sans';-inkscape-font-specification:'Noto Sans Bold';stroke-width:0.412747"
         x="-184.0712"
         y="90.410683">Noto Kufi Arabic (bold)</tspan></text>
    <text
       xml:space="preserve"
       style="font-style:normal;font-weight:normal;font-size:32.8279px;line-height:1.25;font-family:sans-serif;fill:#000000;fill-opacity:1;stroke:none;stroke-width:0.820698"
       x="-109.09346"
       y="160.39227"
       id="text29195"><tspan
         sodipodi:role="line"
         id="tspan29193"
         style="font-style:normal;font-variant:normal;font-weight:bold;font-stretch:normal;font-family:'Noto Kufi Arabic';-inkscape-font-specification:'Noto Kufi Arabic Bold';stroke-width:0.820698"
         x="-109.09346"
         y="160.39227">شيفرة</tspan></text>
    <text
       xml:space="preserve"
       style="font-style:normal;font-weight:normal;font-size:26.9812px;line-height:1.25;font-family:sans-serif;fill:#000000;fill-opacity:1;stroke:none;stroke-width:0.674535"
       x="-95.766289"
       y="133.6713"
       id="text29199"><tspan
         sodipodi:role="line"
         id="tspan29197"
         style="font-style:normal;font-variant:normal;font-weight:bold;font-stretch:normal;font-family:'Noto Sans';-inkscape-font-specification:'Noto Sans Bold';stroke-width:0.674535"
         x="-95.766289"
         y="133.6713">chyfra</tspan></text>
    <g
       aria-label="شيفرة"
       id="g40478"
       style="font-size:32.8279px;line-height:1.25;stroke-width:0.820698"
       transform="translate(139.18635,-25.853473)">
      <path
         id="path40476"
         style="font-weight:bold;font-family:'Noto Kufi Arabic';-inkscape-font-specification:'Noto Kufi Arabic Bold';stroke-width:0.587432"
         d="m 145.72456,71.770798 c -0.37596,0 -0.68924,0.117528 -0.93988,0.352501 -0.2663,0.21931 -0.39948,0.57953 -0.39948,1.080804 0,0.485611 0.13318,0.845833 0.39948,1.080806 0.25064,0.234972 0.56392,0.352499 0.93988,0.352499 0.40728,0 0.72857,-0.133173 0.96355,-0.399475 0.25064,-0.266302 0.3758,-0.610879 0.3758,-1.03383 0,-0.45428 -0.12516,-0.806864 -0.3758,-1.057501 -0.23498,-0.250638 -0.55627,-0.375804 -0.96355,-0.375804 z M 45.370569,72.146602 c -0.48561,0 -0.869484,0.14882 -1.151453,0.446452 -0.281967,0.297633 -0.422778,0.712798 -0.422778,1.245402 0,0.516941 0.140811,0.932108 0.422778,1.245405 0.281969,0.297631 0.665843,0.446451 1.151453,0.446451 0.469946,0 0.845812,-0.14882 1.12778,-0.446451 0.281967,-0.297633 0.423148,-0.712799 0.423148,-1.245405 0,-0.532604 -0.133173,-0.947769 -0.399476,-1.245402 -0.281967,-0.297632 -0.665841,-0.446452 -1.151452,-0.446452 z m 3.994389,0 c -0.485609,0 -0.869115,0.14882 -1.151082,0.446452 -0.281968,0.297633 -0.423149,0.712798 -0.423149,1.245402 0,0.516941 0.141181,0.932108 0.423149,1.245405 0.281967,0.297631 0.665473,0.446451 1.151082,0.446451 0.469946,0 0.846183,-0.14882 1.12815,-0.446451 0.281967,-0.313297 0.422778,-0.728464 0.422778,-1.245405 0,-0.532604 -0.140811,-0.947769 -0.422778,-1.245402 -0.266303,-0.297632 -0.642539,-0.446452 -1.12815,-0.446452 z m 24.061396,0.61105 c -0.501275,0 -0.885151,0.148819 -1.151452,0.446451 -0.281969,0.297634 -0.422779,0.712798 -0.422779,1.245405 0,0.516938 0.14081,0.932106 0.422779,1.245403 0.281967,0.297631 0.665841,0.44645 1.151452,0.44645 0.469945,0 0.845812,-0.148819 1.12778,-0.44645 0.281966,-0.313297 0.422778,-0.728465 0.422778,-1.245403 0,-0.532607 -0.140812,-0.947771 -0.422778,-1.245405 -0.266302,-0.297632 -0.642171,-0.446451 -1.12778,-0.446451 z m 70.300826,2.279232 c -0.48562,0 -0.86912,0.148821 -1.15109,0.446452 -0.28196,0.297631 -0.42315,0.712798 -0.42315,1.245403 0,0.516941 0.14119,0.932107 0.42315,1.245402 0.28197,0.297634 0.66547,0.446453 1.15109,0.446453 0.46994,0 0.84618,-0.148819 1.12815,-0.446453 0.28196,-0.313295 0.42277,-0.728461 0.42277,-1.245402 0,-0.532605 -0.13317,-0.947772 -0.39948,-1.245403 -0.28196,-0.297631 -0.66583,-0.446452 -1.15144,-0.446452 z m 3.99476,0 c -0.50128,0 -0.89279,0.148821 -1.17476,0.446452 -0.2663,0.297631 -0.39948,0.712798 -0.39948,1.245403 0,0.516941 0.14081,0.932107 0.42279,1.245402 0.28196,0.297634 0.66584,0.446453 1.15145,0.446453 0.46994,0 0.84581,-0.148819 1.12778,-0.446453 0.28196,-0.313295 0.42314,-0.728461 0.42314,-1.245402 0,-0.532605 -0.14118,-0.947772 -0.42314,-1.245403 -0.28197,-0.297631 -0.65784,-0.446452 -1.12778,-0.446452 z m -99.837262,3.12516 c -1.159199,0 -2.185288,0.297639 -3.078183,0.892903 -0.892897,0.579599 -1.589686,1.386278 -2.090961,2.420157 -0.250638,0.516941 -0.438756,1.057274 -0.564075,1.621207 -0.125319,0.563936 -0.187902,1.151574 -0.187902,1.762503 0,1.785792 0.493396,3.132803 1.480281,4.041363 1.00255,0.908562 2.45945,1.363028 4.370562,1.363028 1.958106,0 3.430652,-0.438821 4.417538,-1.316052 1.00255,-0.877233 1.503583,-2.239889 1.503583,-4.088339 0,-0.814572 -0.125166,-1.58996 -0.375805,-2.326207 -0.250636,-0.751914 -0.595211,-1.433426 -1.033828,-2.044355 -0.438616,-0.61093 -0.948027,-1.104325 -1.527626,-1.480281 -0.438615,-0.281968 -0.900718,-0.493739 -1.386329,-0.634722 -0.48561,-0.140985 -0.99465,-0.211205 -1.527255,-0.211205 z m 12.171808,0.234877 v 11.842611 c 0,0.720582 -0.196125,1.31586 -0.587745,1.785806 -0.375956,0.48561 -0.876991,0.728303 -1.503585,0.728303 -0.438614,0 -0.82249,-0.04693 -1.151451,-0.140926 -0.313297,-0.09399 -0.673519,-0.274099 -1.080806,-0.540403 l -1.410001,2.279233 c 0.736248,0.501275 1.441416,0.84585 2.115003,1.033828 0.673589,0.18798 1.409677,0.282224 2.208584,0.282224 1.002549,0 1.864173,-0.219411 2.584758,-0.658027 0.736247,-0.42295 1.30787,-1.033873 1.715156,-1.83278 0.407286,-0.783242 0.61105,-1.707449 0.61105,-2.772659 v -0.376174 h 3.054512 56.296979 10.4326 8.976 c 0.87723,0 1.63697,-0.148819 2.27923,-0.44645 0.65793,-0.297632 1.20627,-0.736081 1.64489,-1.315682 0.56392,0.579601 1.1512,1.01805 1.76213,1.315682 0.61092,0.297631 1.25314,0.44645 1.92673,0.44645 h 4.88766 V 78.396921 h -3.50133 v 8.811403 h -1.45661 c -0.61092,0 -1.10432,-0.101882 -1.48028,-0.305525 -0.37595,-0.203644 -0.75983,-0.563864 -1.15145,-1.080804 0.0313,-0.172314 0.047,-0.344417 0.047,-0.516731 0.0157,-0.172312 0.0233,-0.352423 0.0233,-0.5404 v -4.535162 h -3.50096 v 4.252938 c 0,0.955555 -0.18011,1.652714 -0.54041,2.09133 -0.36029,0.422952 -0.93191,0.634354 -1.71516,0.634354 h -1.99738 v -6.978622 h -3.50095 v 6.978622 h -2.70239 -3.52463 v -8.811403 h -3.50096 v 8.811403 h -3.40698 -43.255941 v -8.811403 h -4.18266 c -1.441166,0 -2.678656,0.235054 -3.712537,0.705 -1.018214,0.454283 -1.801241,1.112141 -2.34951,1.973708 -0.532605,0.845902 -0.798952,1.856345 -0.798952,3.031208 0,0.391622 0.0393,0.767489 0.117624,1.12778 0.09399,0.360291 0.219154,0.704866 0.375803,1.033828 0.172314,0.328961 0.383714,0.642247 0.634353,0.939879 h -3.125209 -3.054512 v -8.811403 z m -12.289062,2.584756 c 0.454281,0 0.861439,0.172104 1.221731,0.51673 0.375956,0.344627 0.673595,0.799092 0.892902,1.363026 0.219309,0.563935 0.328828,1.190505 0.328828,1.879758 0,0.892896 -0.195756,1.558762 -0.587377,1.997378 -0.391621,0.438617 -1.002544,0.657656 -1.832781,0.657656 -0.830237,0 -1.448797,-0.211402 -1.856083,-0.634353 -0.391622,-0.438616 -0.587748,-1.112121 -0.587748,-2.020681 0,-0.704919 0.10989,-1.339495 0.329198,-1.903431 0.219307,-0.563933 0.508939,-1.010392 0.86923,-1.339353 0.375956,-0.344626 0.783485,-0.51673 1.2221,-0.51673 z m 27.773562,0.234878 h 0.611051 v 5.991769 h -0.658025 c -0.704919,0 -1.307835,-0.109519 -1.809109,-0.328829 -0.48561,-0.234972 -0.853838,-0.571909 -1.104477,-1.010526 -0.250638,-0.438614 -0.376173,-0.9633 -0.376173,-1.574231 0,-0.673587 0.125535,-1.237574 0.376173,-1.691854 0.266302,-0.45428 0.650178,-0.798857 1.151453,-1.033828 0.501275,-0.234972 1.104191,-0.352501 1.809107,-0.352501 z m 49.929024,10.691158 c -0.4856,0 -0.86948,0.148819 -1.15144,0.446452 -0.28197,0.313297 -0.42278,0.728463 -0.42278,1.245404 0,0.516938 0.14081,0.924468 0.42278,1.222099 0.28196,0.313297 0.66584,0.469755 1.15144,0.469755 0.46995,0 0.84582,-0.14882 1.12779,-0.446451 0.28197,-0.297632 0.42314,-0.712799 0.42314,-1.245403 0,-0.532606 -0.13317,-0.947771 -0.39947,-1.245404 -0.28197,-0.297633 -0.66584,-0.446452 -1.15146,-0.446452 z m 3.99476,0 c -0.4856,0 -0.86948,0.148819 -1.15144,0.446452 -0.28198,0.313297 -0.42315,0.728463 -0.42315,1.245404 0,0.516938 0.14117,0.924468 0.42315,1.222099 0.28196,0.313297 0.66584,0.469755 1.15144,0.469755 0.46995,0 0.84582,-0.156458 1.12779,-0.469755 0.28196,-0.297631 0.42278,-0.705161 0.42278,-1.222099 0,-0.516941 -0.14082,-0.932107 -0.42278,-1.245404 -0.2663,-0.297633 -0.64217,-0.446452 -1.12779,-0.446452 z"
         sodipodi:nodetypes="scscscscsssscssscsssscscscsscscscscsssscscscsscscscsssscssscscscscsscscscccssccsccccsccssccccssccsccscsccccccccccccsccscccccccscsssscsscssccscsscssscscssscsscscscscs" />
    </g>
    <text
       xml:space="preserve"
       style="font-style:normal;font-weight:normal;font-size:12.0395px;line-height:1.25;font-family:sans-serif;fill:#000000;fill-opacity:1;stroke:none;stroke-width:0.300988"
       x="224.34399"
       y="55.086842"
       id="text40482"><tspan
         sodipodi:role="line"
         style="font-style:normal;font-variant:normal;font-weight:500;font-stretch:normal;font-family:'Noto Sans';-inkscape-font-specification:'Noto Sans Medium';stroke-width:0.300988"
         x="224.34399"
         y="55.086842"
         id="tspan40480">chyfra</tspan></text>
    <rect
       style="fill:#ff0000;fill-opacity:0.339131;stroke-width:0.247493"
       id="rect40484"
       width="6.2384262"
       height="7.205482"
       x="268.99185"
       y="47.17075" />
    <rect
       style="fill:#ff0000;fill-opacity:0.339131;stroke-width:0.247493"
       id="rect40486"
       width="6.2384262"
       height="7.205482"
       x="259.26389"
       y="45.337963" />
    <rect
       style="fill:#ff0000;fill-opacity:0.339131;stroke-width:0.247493"
       id="rect40488"
       width="6.2384262"
       height="7.205482"
       x="218.8394"
       y="45.337963" />
    <g
       aria-label="شيفرة"
       id="g40590"
       style="font-size:32.8279px;line-height:1.25;fill:#ffffff;stroke-width:0.820698"
       transform="translate(-0.39223787,2.943483)">
      <path
         id="path40588"
         style="font-weight:bold;font-family:'Noto Kufi Arabic';-inkscape-font-specification:'Noto Kufi Arabic Bold';fill:#ffffff;stroke-width:2.22022"
         d="m 283.36133,187.57422 c -1.72916,0 -3.20063,0.2869 -4.41406,0.86328 -1.21343,0.57638 -2.15491,1.50129 -2.82227,2.77539 -0.63705,1.24377 -0.95508,2.91269 -0.95508,5.00586 v 1.54687 l -4.14062,1.50196 v 2.27539 h 4.14062 v 20.83984 h 4.82422 v -20.83984 h 6.05078 v -3.68555 h -6.05078 v -1.59375 c 0,-1.60779 0.2869,-2.80502 0.86328,-3.59375 0.60672,-0.78873 1.51704,-1.18359 2.73047,-1.18359 0.69773,0 1.3649,0.0768 2.00195,0.22851 0.63706,0.12134 1.19823,0.25652 1.6836,0.40821 l 1.22851,-3.68555 c -0.60671,-0.21234 -1.34876,-0.40977 -2.22851,-0.5918 -0.87973,-0.18202 -1.85037,-0.27148 -2.91211,-0.27148 z m 140.95508,0.15234 c -1.42095,0 -2.60544,0.44395 -3.55274,1.33203 -1.00649,0.82889 -1.50976,2.19136 -1.50976,4.08594 0,1.83538 0.50327,3.1959 1.50976,4.08399 0.9473,0.88808 2.13179,1.33398 3.55274,1.33398 1.53932,0 2.75446,-0.50327 3.64257,-1.50977 0.94731,-1.00649 1.41993,-2.30964 1.41993,-3.9082 0,-1.71696 -0.47262,-3.0488 -1.41993,-3.99609 -0.88811,-0.9473 -2.10325,-1.42188 -3.64257,-1.42188 z m -202.83985,0.0742 v 34.58203 h 4.82227 v -12.33008 c 0,-1.85048 0.19743,-3.41339 0.59179,-4.6875 0.42471,-1.30443 1.10647,-2.28964 2.04688,-2.95703 0.97074,-0.66738 2.29052,-1.00195 3.95898,-1.00195 1.72914,0 3.0032,0.46975 3.82227,1.41016 0.81906,0.94041 1.22852,2.36619 1.22852,4.27734 v 15.28906 h 4.77929 v -15.9707 c 0,-2.1235 -0.34915,-3.83814 -1.04687,-5.14258 -0.66739,-1.30443 -1.66914,-2.26047 -3.00391,-2.86719 -1.30443,-0.63705 -2.92765,-0.95507 -4.86914,-0.95507 -1.00108,0 -1.98629,0.13713 -2.95703,0.41015 -0.94041,0.27302 -1.80502,0.68247 -2.59375,1.22852 -0.7584,0.54604 -1.3964,1.24435 -1.91211,2.09375 h -0.27148 c 0.0607,-0.51571 0.10638,-1.13913 0.13671,-1.86719 0.0607,-0.72806 0.0899,-1.50125 0.0899,-2.32031 v -9.19141 z m -176.451169,1.34766 c -1.835377,0 -3.285853,0.56064 -4.351563,1.68554 -1.065702,1.12492 -1.597656,2.69404 -1.597656,4.70704 0,1.95379 0.531954,3.52291 1.597656,4.70703 1.06571,1.1249 2.516186,1.6875 4.351563,1.6875 1.776173,0 3.197966,-0.5626 4.263671,-1.6875 1.065703,-1.12492 1.597657,-2.69404 1.597657,-4.70703 0,-2.013 -0.503266,-3.58212 -1.509766,-4.70704 -1.065702,-1.1249 -2.516182,-1.68554 -4.351562,-1.68554 z m 15.097656,0 c -1.835373,0 -3.285861,0.56064 -4.351563,1.68554 -1.065705,1.12492 -1.599609,2.69404 -1.599609,4.70704 0,1.95379 0.533904,3.52291 1.599609,4.70703 1.065702,1.1249 2.51619,1.6875 4.351563,1.6875 1.776174,0 3.19797,-0.5626 4.263672,-1.6875 1.065702,-1.18412 1.597656,-2.75324 1.597656,-4.70703 0,-2.013 -0.531954,-3.58212 -1.597656,-4.70704 -1.0065,-1.1249 -2.428292,-1.68554 -4.263672,-1.68554 z m 90.939453,2.30859 c -1.89458,0 -3.34507,0.56259 -4.35156,1.6875 -1.06571,1.12492 -1.59766,2.69403 -1.59766,4.70703 0,1.95378 0.53195,3.52292 1.59766,4.70703 1.0657,1.12491 2.51618,1.6875 4.35156,1.6875 1.77617,0 3.19797,-0.56259 4.26367,-1.6875 1.0657,-1.18411 1.59766,-2.75325 1.59766,-4.70703 0,-2.013 -0.53196,-3.58211 -1.59766,-4.70703 -1.00649,-1.12491 -2.4283,-1.6875 -4.26367,-1.6875 z m 58.49219,5.94531 c -2.24485,0 -4.26293,0.44058 -6.05274,1.32032 -1.75947,0.87973 -3.15413,2.27439 -4.18554,4.18554 -1.00108,1.88082 -1.50196,4.32293 -1.50196,7.32618 0,2.91223 0.48434,5.30863 1.45508,7.18945 0.97075,1.85048 2.30511,3.21596 4.00391,4.0957 1.72913,0.87974 3.7015,1.31836 5.91601,1.31836 1.45612,0 2.70101,-0.13518 3.73243,-0.4082 1.06174,-0.24269 2.01583,-0.60643 2.86523,-1.0918 v -4.14258 c -0.87974,0.45504 -1.85036,0.83532 -2.91211,1.13867 -1.06175,0.27302 -2.25898,0.41016 -3.59375,0.41016 -1.42578,0 -2.62496,-0.31998 -3.5957,-0.95703 -0.94041,-0.63705 -1.66789,-1.59113 -2.1836,-2.86523 -0.48537,-1.27411 -0.72851,-2.85161 -0.72851,-4.73243 0,-1.91115 0.24314,-3.50519 0.72851,-4.77929 0.48538,-1.30444 1.22939,-2.27506 2.23047,-2.91211 1.00108,-0.66739 2.24402,-1 3.73047,-1 0.87974,0 1.79006,0.12058 2.73047,0.36328 0.97074,0.24268 1.84994,0.53154 2.63867,0.86523 l 1.45703,-3.91406 c -0.81906,-0.39436 -1.82081,-0.72698 -3.0039,-1 -1.1831,-0.27302 -2.42604,-0.41016 -3.73047,-0.41016 z m 92.78125,0 c -1.09208,0 -2.10841,0.21202 -3.04883,0.63672 -0.9404,0.4247 -1.77584,1.017 -2.50391,1.77539 -0.72806,0.72806 -1.33299,1.53042 -1.81836,2.41016 h -0.22851 l -0.63672,-4.36719 h -3.82227 v 24.52539 h 4.82227 v -12.87695 c 0,-1.24377 0.18286,-2.33498 0.54687,-3.27539 0.39439,-0.94041 0.90983,-1.73014 1.54688,-2.36719 0.63703,-0.63705 1.36452,-1.12138 2.18359,-1.45508 0.81908,-0.36403 1.65452,-0.54687 2.50391,-0.54687 0.51573,0 1.00005,0.0311 1.45508,0.0918 0.45503,0.0607 0.88103,0.13556 1.27539,0.22657 l 0.54492,-4.50391 c -0.36404,-0.091 -0.81919,-0.15326 -1.36523,-0.18359 -0.51571,-0.0607 -1.00005,-0.0898 -1.45508,-0.0898 z m 16.0625,0.0449 c -1.72914,0 -3.35234,0.19743 -4.86914,0.59179 -1.51678,0.39437 -2.83657,0.89524 -3.95899,1.50196 l 1.45703,3.5039 c 1.03141,-0.48537 2.12264,-0.91136 3.27539,-1.27539 1.1831,-0.39436 2.38228,-0.58984 3.59571,-0.58984 1.48646,0 2.63795,0.36374 3.45703,1.09179 0.81905,0.72806 1.22851,2.0313 1.22851,3.91211 v 1.27539 l -4.14062,0.13672 c -3.88299,0.12135 -6.78025,0.84882 -8.69141,2.1836 -1.91115,1.30443 -2.86718,3.18538 -2.86718,5.64258 0,1.6988 0.33456,3.09345 1.00195,4.18554 0.66739,1.09209 1.57771,1.91099 2.73047,2.45703 1.18309,0.51571 2.50286,0.77344 3.95898,0.77344 1.36512,0 2.51664,-0.13518 3.45703,-0.4082 0.97076,-0.27303 1.82079,-0.69902 2.54883,-1.27539 0.7584,-0.57638 1.48587,-1.30386 2.18359,-2.1836 h 0.1836 l 0.95508,3.41211 h 3.45898 v -16.60742 c 0,-2.85156 -0.744,-4.94452 -2.23047,-6.2793 -1.48644,-1.36511 -3.73113,-2.04882 -6.73437,-2.04882 z m -72.07813,0.41015 9.83008,24.52539 -1.04687,2.68555 c -0.33371,0.8494 -0.74315,1.59342 -1.22852,2.23047 -0.45503,0.66738 -1.0162,1.18284 -1.68359,1.54687 -0.66739,0.36403 -1.4717,0.54492 -2.41211,0.54492 -0.51571,1e-5 -1.01658,-0.0292 -1.50196,-0.0898 -0.45503,-0.0607 -0.8499,-0.12292 -1.18359,-0.18359 v 3.82422 c 0.39436,0.091 0.86607,0.16588 1.41211,0.22656 0.57638,0.091 1.22702,0.13672 1.95508,0.13672 1.6988,0 3.12459,-0.31803 4.27734,-0.95508 1.18309,-0.63705 2.18483,-1.54738 3.00391,-2.73047 0.81907,-1.18309 1.53195,-2.57971 2.13867,-4.1875 l 10.41992,-27.57422 h -5.14062 l -4.86914,13.92383 c -0.36402,1.09209 -0.71317,2.1833 -1.04688,3.27539 -0.33378,1.09209 -0.59152,2.00241 -0.77344,2.73047 h -0.18359 c -0.0911,-0.60672 -0.22628,-1.22818 -0.4082,-1.86523 -0.18208,-0.66739 -0.39408,-1.33457 -0.63672,-2.00196 -0.21239,-0.66738 -0.44095,-1.36569 -0.6836,-2.09375 l -5.0957,-13.96875 z m 170.44727,2.21485 c -1.83542,0 -3.28585,0.56259 -4.35156,1.6875 -1.06568,1.1249 -1.59766,2.69403 -1.59766,4.70703 0,1.95379 0.53198,3.52292 1.59766,4.70703 1.06571,1.12491 2.51614,1.68555 4.35156,1.68555 1.77615,0 3.19796,-0.56064 4.26367,-1.68555 1.06568,-1.18411 1.59766,-2.75324 1.59766,-4.70703 0,-2.013 -0.50324,-3.58213 -1.50977,-4.70703 -1.06567,-1.12491 -2.51619,-1.6875 -4.35156,-1.6875 z m 15.09765,0 c -1.8946,0 -3.37374,0.56259 -4.43945,1.6875 -1.00649,1.1249 -1.50976,2.69403 -1.50976,4.70703 0,1.95379 0.5319,3.52292 1.59765,4.70703 1.06568,1.12491 2.51619,1.68555 4.35156,1.68555 1.77616,0 3.19796,-0.56064 4.26368,-1.68555 1.06567,-1.18411 1.59765,-2.75324 1.59765,-4.70703 0,-2.013 -0.53198,-3.58213 -1.59765,-4.70703 -1.06572,-1.12491 -2.48752,-1.6875 -4.26368,-1.6875 z m -109.28125,10.52539 v 2.13867 c 0,2.1235 -0.63605,3.71754 -1.91015,4.77929 -1.24377,1.03142 -2.80668,1.54688 -4.6875,1.54688 -1.21343,0 -2.19866,-0.28885 -2.95703,-0.86523 -0.7584,-0.60672 -1.13868,-1.54622 -1.13868,-2.82032 0,-1.42578 0.53201,-2.53353 1.59376,-3.32226 1.09208,-0.78873 3.01872,-1.2293 5.77929,-1.32031 z m -268.056636,1.28515 c -4.381225,0 -8.258091,1.12519 -11.632813,3.375 -3.374729,2.19061 -6.009714,5.23891 -7.904297,9.14649 -0.947293,1.95379 -1.657212,3.9975 -2.130859,6.1289 -0.473647,2.13141 -0.710937,4.35114 -0.710937,6.66016 0,6.74945 1.865744,11.84146 5.595703,15.27539 3.789165,3.43394 9.294477,5.15039 16.517578,5.15039 7.400715,0 12.967303,-1.65714 16.697265,-4.97266 3.789166,-3.31552 5.681641,-8.46685 5.681641,-15.45312 0,-3.0787 -0.472625,-6.00835 -1.419922,-8.79102 -0.947286,-2.84188 -2.248485,-5.41754 -3.90625,-7.72656 -1.657761,-2.30903 -3.58478,-4.17477 -5.775391,-5.5957 -1.657757,-1.06571 -3.402901,-1.86559 -5.238281,-2.39844 -1.835376,-0.53286 -3.760442,-0.79883 -5.773437,-0.79883 z m 46.003906,0.88867 v 44.75977 c 0,2.72346 -0.740565,4.97187 -2.220703,6.74805 -1.420936,1.83537 -3.315365,2.7539 -5.683594,2.7539 -1.657754,0 -3.108245,-0.17794 -4.351562,-0.5332 -1.184115,-0.35524 -2.544632,-1.03647 -4.083985,-2.04297 l -5.330078,8.61524 c 2.78267,1.89458 5.4483,3.19578 7.994141,3.90625 2.545848,0.71047 5.328165,1.0664 8.347656,1.0664 3.789162,0 7.044105,-0.82856 9.767575,-2.48633 2.78267,-1.59855 4.94503,-3.90824 6.48438,-6.92773 1.53935,-2.96029 2.30859,-6.45253 2.30859,-10.47852 v -1.42187 h 11.54492 212.77539 39.42969 33.92578 c 3.31552,0 6.1878,-0.5626 8.61524,-1.6875 2.48666,-1.12491 4.55902,-2.78204 6.21679,-4.97266 2.13136,2.19062 4.35113,3.84775 6.66016,4.97266 2.30899,1.1249 4.7354,1.6875 7.28125,1.6875 h 18.47266 v -43.95899 h -13.23243 v 33.30274 h -5.50585 c -2.30899,0 -4.1728,-0.38462 -5.59375,-1.1543 -1.42092,-0.76968 -2.87338,-2.13215 -4.35352,-4.08594 0.1183,-0.65126 0.17773,-1.30186 0.17773,-1.95312 0.0593,-0.65126 0.0879,-1.33251 0.0879,-2.04297 v -17.14062 h -13.23046 v 16.07421 c 0,3.61155 -0.68121,6.24654 -2.04297,7.9043 -1.36173,1.59856 -3.52211,2.39844 -6.48242,2.39844 h -7.54883 v -26.37695 h -13.23242 v 26.37695 h -10.21485 -13.32031 v -33.30274 h -13.23242 v 33.30274 H 338.08398 174.59766 v -33.30274 h -15.8086 c -5.44692,0 -10.12367,0.88789 -14.03125,2.66407 -3.84837,1.71697 -6.80866,4.20267 -8.88086,7.45898 -2.01299,3.19711 -3.01953,7.01661 -3.01953,11.45703 0,1.48015 0.14929,2.89999 0.44531,4.26172 0.35524,1.36173 0.82787,2.66488 1.41993,3.9082 0.65126,1.24332 1.44918,2.42783 2.39648,3.55274 h -11.81055 -11.54492 v -33.30274 z m -46.447266,9.76758 c 1.716968,0 3.257407,0.6506 4.619141,1.95313 1.420936,1.30252 2.54417,3.02094 3.373047,5.15234 0.828884,2.13141 1.24414,4.50042 1.24414,7.10547 0,3.37473 -0.74056,5.89107 -2.220703,7.54883 -1.480142,1.65776 -3.78983,2.48437 -6.927734,2.48437 -3.137904,0 -5.474323,-0.79793 -7.013672,-2.39648 -1.480146,-1.65776 -2.222656,-4.20279 -2.222656,-7.63672 0,-2.66426 0.41526,-5.0639 1.244141,-7.19531 0.828876,-2.1314 1.923426,-3.81919 3.285156,-5.0625 1.420936,-1.30253 2.961383,-1.95313 4.61914,-1.95313 z m 104.972656,0.88867 h 2.30859 v 22.64649 h -2.48632 c -2.66426,0 -4.94332,-0.41525 -6.83789,-1.24414 -1.83538,-0.88809 -3.22849,-2.1606 -4.17579,-3.81836 -0.94729,-1.65775 -1.41992,-3.64019 -1.41992,-5.94922 0,-2.54584 0.47263,-4.67757 1.41992,-6.39453 1.0065,-1.71697 2.45894,-3.02013 4.35352,-3.9082 1.89458,-0.88809 4.17364,-1.33204 6.83789,-1.33204 z m 188.70703,40.40821 c -1.83534,0 -3.28589,0.56259 -4.35156,1.6875 -1.06571,1.18411 -1.59766,2.75324 -1.59766,4.70703 0,1.95378 0.53195,3.49228 1.59766,4.61719 1.06567,1.18411 2.51622,1.77734 4.35156,1.77734 1.77619,0 3.19601,-0.5626 4.26172,-1.6875 1.06571,-1.12491 1.59961,-2.69404 1.59961,-4.70703 0,-2.013 -0.50328,-3.58212 -1.50977,-4.70703 -1.06571,-1.12491 -2.51614,-1.6875 -4.35156,-1.6875 z m 15.09766,0 c -1.83534,0 -3.28589,0.56259 -4.35156,1.6875 -1.06576,1.18411 -1.59961,2.75324 -1.59961,4.70703 0,1.95378 0.53385,3.49228 1.59961,4.61719 1.06567,1.18411 2.51622,1.77734 4.35156,1.77734 1.77619,0 3.19796,-0.59323 4.26367,-1.77734 1.06568,-1.12491 1.59766,-2.66341 1.59766,-4.61719 0,-1.95379 -0.53198,-3.52292 -1.59766,-4.70703 -1.00649,-1.12491 -2.42826,-1.6875 -4.26367,-1.6875 z"
         transform="matrix(0.26458333,0,0,0.26458333,33.457497,22.101313)" />
    </g>
    <g
       aria-label="chyfra"
       id="text40594"
       style="font-size:12.0395px;line-height:1.25;fill:#ffffff;stroke-width:0.300988" />
    <text
       xml:space="preserve"
       style="font-style:normal;font-weight:normal;font-size:16.5098px;line-height:1.25;font-family:sans-serif;fill:#000000;fill-opacity:1;stroke:none;stroke-width:0.412747"
       x="-162.81979"
       y="209.35442"
       id="text56375"><tspan
         sodipodi:role="line"
         id="tspan56373"
         style="font-style:normal;font-variant:normal;font-weight:bold;font-stretch:normal;font-family:'Noto Sans';-inkscape-font-specification:'Noto Sans Bold';stroke-width:0.412747"
         x="-162.81979"
         y="209.35442">#cb6843 : Terracotta</tspan></text>
  </g>
</svg>
